HIERARCHY
ROOT Hips
{
     OFFSET 23.18260 95.62190 -28.07970
     CHANNELS 6 Xposition Yposition Zposition Zrotation Xrotation Yrotation
     JOINT Spine
     {
          OFFSET 0.00000 11.89050 0.00000
          CHANNELS 3 Zrotation Xrotation Yrotation
          JOINT Spine1
          {
               OFFSET 0.00000 25.65740 0.12766
               CHANNELS 3 Zrotation Xrotation Yrotation
               JOINT HEad
               {
                    OFFSET 0.00000 8.73416 0.01134
                    CHANNELS 3 Zrotation Xrotation Yrotation
                    End Site
                    {
                         OFFSET -0.29000 12.77420 2.51395
                    }
               }
               JOINT LeftShoulder1
               {
                    OFFSET 8.99000 -0.36225 -0.22000
                    CHANNELS 3 Zrotation Xrotation Yrotation
                    JOINT LeftArm
                    {
                         OFFSET 10.28270 -0.00338 0.32212
                         CHANNELS 3 Zrotation Xrotation Yrotation
                         JOINT LeftForeArm
                         {
                              OFFSET 32.76690 0.09914 -1.42434
                              CHANNELS 3 Zrotation Xrotation Yrotation
                              JOINT LeftHand
                              {
                                   OFFSET 27.56430 0.08536 1.02216
                                   CHANNELS 3 Zrotation Xrotation Yrotation
                                   End Site
                                   {
                                        OFFSET 16.74430 -0.60000 1.50291
                                   }
                              }
                         }
                    }
               }
               JOINT RightShoulder
               {
                    OFFSET -8.99000 -0.36225 -0.22000
                    CHANNELS 3 Zrotation Xrotation Yrotation
                    JOINT RightArm
                    {
                         OFFSET -10.28270 -0.00338 0.32212
                         CHANNELS 3 Zrotation Xrotation Yrotation
                         JOINT RightForeArm
                         {
                              OFFSET -32.89710 0.09914 -1.42434
                              CHANNELS 3 Zrotation Xrotation Yrotation
                              JOINT RightHand
                              {
                                   OFFSET -27.49210 0.08536 1.02216
                                   CHANNELS 3 Zrotation Xrotation Yrotation
                                   End Site
                                   {
                                        OFFSET -16.63120 -0.60000 1.50291
                                   }
                              }
                         }
                    }
               }
          }
     }
     JOINT LeftUpLeg
     {
          OFFSET 8.94580 -8.66707 0.10165
          CHANNELS 3 Zrotation Xrotation Yrotation
          JOINT LeftLeg
          {
               OFFSET 0.00000 -44.42270 1.37270
               CHANNELS 3 Zrotation Xrotation Yrotation
               JOINT LeftFoot
               {
                    OFFSET -0.25355 -42.09240 -1.46059
                    CHANNELS 3 Zrotation Xrotation Yrotation
                    JOINT LeftToes
                    {
                         OFFSET -0.04000 -4.41509 8.49910
                         CHANNELS 3 Zrotation Xrotation Yrotation
                         End Site
                         {
                              OFFSET 0.08000 -0.04745 9.77979
                         }
                    }
               }
          }
     }
     JOINT RightUpLeg
     {
          OFFSET -8.94580 -8.66707 0.10165
          CHANNELS 3 Zrotation Xrotation Yrotation
          JOINT RightLeg
          {
               OFFSET 0.00000 -44.42270 1.37270
               CHANNELS 3 Zrotation Xrotation Yrotation
               JOINT RightFoot
               {
                    OFFSET 0.25355 -42.09240 -1.46059
                    CHANNELS 3 Zrotation Xrotation Yrotation
                    JOINT RightToes
                    {
                         OFFSET 0.04000 -4.41509 8.49910
                         CHANNELS 3 Zrotation Xrotation Yrotation
                         End Site
                         {
                              OFFSET -0.08000 -0.13745 9.77979
                         }
                    }
               }
          }
     }
}
MOTION
Frames: 6
Frame Time: 0.01667
31.27660 95.88050 -18.47930 -11.84670 -0.11223 -57.08170 -3.40363 5.05474 -0.13897 -3.81359 10.14320 -0.52501 -21.27860 27.73950 45.00980 0.00000 0.00000 0.00000 -104.02300 -16.64120 -135.23700 -26.67570 39.21700 -104.65700 -29.75580 15.10430 -15.07560 17.07780 2.84262 12.01140 87.63000 9.84929 60.68360 10.70900 26.00220 81.91500 -5.76419 8.87772 18.93470 27.78270 -6.27171 11.51050 -13.36540 31.31840 30.77970 1.28091 1.54547 -0.12781 -30.19090 -31.60210 -14.13820 -16.72500 -10.67930 0.64199 3.62510 35.92350 3.03205 24.56310 -6.72275 -0.37085 11.83310 29.75660 -30.02550 
31.19150 95.96160 -18.67820 -11.64860 -0.44738 -56.44140 -3.20297 5.15358 -0.01015 -3.47245 10.32950 -0.27519 -20.67350 27.83200 44.01890 0.00000 0.00000 0.00000 -104.69100 -16.69420 -134.28200 -26.62050 39.52130 -104.59100 -27.29790 14.72990 -15.31600 16.67820 2.70772 11.57440 87.60050 9.63040 61.26240 9.98113 26.28870 82.30010 -5.75511 8.89055 18.69180 27.23620 -6.51086 11.37890 -12.80810 31.15710 29.98720 1.50839 0.93889 -0.13450 -28.32890 -30.27560 -12.91810 -16.98900 -10.48470 1.05879 3.62006 35.98520 3.78171 24.25720 -6.61037 -0.39176 10.90570 28.06900 -30.10390 
31.05430 96.06360 -18.93150 -11.46500 -0.79844 -55.60930 -2.91643 5.28060 0.11117 -3.04379 10.56980 -0.03696 -19.97340 27.70610 42.73990 0.00000 0.00000 0.00000 -105.74300 -16.73590 -133.04800 -26.66340 39.87750 -104.37100 -23.85510 14.21390 -15.74370 16.18160 2.56457 11.13610 87.68560 9.26353 61.86890 9.18513 26.63570 82.78750 -5.57356 8.94420 18.29930 26.66650 -6.74733 11.12580 -12.12730 30.85850 29.05930 1.52293 0.52101 -0.12755 -26.56290 -28.90200 -11.84020 -17.12780 -10.12100 1.42981 3.30699 36.06670 5.05283 24.04810 -7.07561 -0.29315 10.13310 26.67190 -30.11130 
30.84880 96.18790 -19.25080 -11.30040 -1.16277 -54.54530 -2.55295 5.43396 0.20995 -2.53893 10.86150 0.15754 -19.24030 27.39430 41.16270 0.00000 0.00000 0.00000 -107.22900 -16.76660 -131.49899 -26.74810 40.29610 -103.96800 -19.43210 13.53760 -16.38130 15.59640 2.41497 10.69470 87.91540 8.74501 62.47780 8.34109 27.03940 83.36040 -5.18536 9.04299 17.74890 26.09680 -6.95193 10.80830 -11.29330 30.34560 27.90040 1.28675 0.47523 -0.10989 -25.16250 -27.72040 -11.05780 -17.11930 -9.51618 1.75577 2.72302 36.09530 6.72018 23.99100 -8.09376 -0.08163 9.45561 25.45310 -30.06300 
30.56160 96.32960 -19.64880 -11.13560 -1.54743 -53.23190 -2.16042 5.60116 0.27907 -2.00345 11.18060 0.28787 -18.43180 26.98110 39.26930 0.00000 0.00000 0.00000 -109.14500 -16.79000 -129.59500 -26.87150 40.79300 -103.32200 -14.33010 12.70680 -17.12340 15.01100 2.26965 10.25010 88.19890 8.08335 63.07080 7.44111 27.48400 83.99940 -4.68070 9.16288 17.10950 25.55120 -7.12374 10.48890 -10.35550 29.60640 26.42400 0.79863 0.72210 -0.07840 -23.91250 -26.65440 -10.34540 -16.98370 -8.63592 2.08151 1.99939 35.97550 8.51886 24.16780 -9.42017 0.19719 8.76705 24.21030 -29.98670 
30.19130 96.47520 -20.12790 -10.94030 -1.95275 -51.67230 -1.77105 5.76352 0.31530 -1.49104 11.49070 0.34890 -17.43870 26.52590 37.05240 0.00000 0.00000 0.00000 -111.39900 -16.84510 -127.30300 -27.15180 41.35280 -102.31000 -9.08544 11.78210 -17.78400 14.53990 2.14225 9.81153 88.38560 7.26741 63.64410 6.45115 27.95120 84.70600 -4.19068 9.27495 16.44720 25.05280 -7.31096 10.18840 -9.42596 28.71960 24.61600 0.12799 0.96621 -0.03106 -22.29030 -25.34500 -9.28580 -16.75520 -7.51114 2.41951 1.27198 35.66210 10.20130 24.60770 -10.75850 0.49135 8.08463 22.96070 -29.93640 
